<?xml version="1.0" encoding="UTF-8"?>
<svg width="512pt" height="512pt" version="1.1" viewBox="0 0 512 512" xmlns="http://www.w3.org/2000/svg">
 <path d="m255.09 143.44-66.254 64.887 0.19531 261.49c0.003906 6.3281-5.0664 11.461-11.32 11.461h-37.762c-6.2578 0-11.328-5.1328-11.328-11.453v-136.95h-7.6562v136.95c0 6.3242-5.0703 11.453-11.336 11.453h-38.355c-6.2617 0-11.344-5.1289-11.355-11.457l-0.23047-142.64h-20.363c-6.2578 0-11.328-5.125-11.328-11.453v-132.27c0-18.977 15.219-34.363 33.988-34.363 0 0 115.18 0.003906 115.31 0.007812l41.82-39.551zm41.941-41.086c4.207-4.4219 4.0938-11.328-0.31641-15.617l-18.191-17.691c-4.5117-4.3867-11.871-4.4375-16.441-0.11328l-0.27344 0.25781zm-179.18 39.363c30.328 0 54.91-24.848 54.91-55.5s-24.582-55.5-54.91-55.5-54.91 24.848-54.91 55.5 24.582 55.5 54.91 55.5zm336.95 7.3867c18.773 0 33.992 15.387 33.992 34.363v132.27c0 6.3281-5.0742 11.453-11.332 11.453h-20.363l-0.22656 142.64c-0.011719 6.3281-5.0938 11.457-11.355 11.457h-38.359c-6.2617 0-11.336-5.1289-11.336-11.453v-136.95h-7.6523v136.95c0 6.3203-5.0703 11.453-11.328 11.453h-37.762c-6.2578 0-11.324-5.1328-11.32-11.461v-262.99l-107.71-104.18c-4.5-4.4062-4.4844-11.527 0.023437-15.914l18.195-17.691c4.5117-4.3867 11.871-4.4375 16.441-0.11328l84.789 80.18c0.13281-0.003906 115.3-0.007812 115.3-0.007812zm-55.867-7.3867c-30.324 0-54.91-24.848-54.91-55.5s24.586-55.5 54.91-55.5c30.328 0 54.914 24.848 54.914 55.5s-24.586 55.5-54.914 55.5z" fill-rule="evenodd"/>
</svg>
