<?xml version="1.0" encoding="UTF-8" standalone="no"?>
<svg
   id="Layer_1"
   data-name="Layer 1"
   viewBox="0 0 385.14001 90.160007"
   version="1.1"
   width="385.14001"
   height="90.160004"
   xmlns="http://www.w3.org/2000/svg"
   xmlns:svg="http://www.w3.org/2000/svg">
  <defs
     id="defs4">
    <style
       id="style2">.cls-1,.cls-2{fill:#9b9fa8;}.cls-1,.cls-3{fill-rule:evenodd;}.cls-3{fill:#0060ac;}</style>
  </defs>
  <g
     id="g1621"
     transform="translate(46.368982,8.0696071)">
    <path
       class="cls-3"
       d="M 66.261018,29.420393 103.74102,-8.0696071 h 21.45 l -45.000002,45.0000001 45.000002,45 h -21.45 l -37.480002,-37.5 v -15 z m -52.52,37.51 v 15 h 18.58 a 26.27,26.27 0 1 0 -0.19,-52.53 h -18.39 v 15 h 18.59 a 11.26,11.26 0 1 1 0,22.51 z m -60.11,-75.0000001 h 45.1100004 v 15 H -46.338982 v -15 z m 0,37.4900001 h 45.1100004 v 15 H -46.338982 v -15 z"
       id="path50" />
    <path
       class="cls-1"
       d="m 170.52102,65.700393 h 1.69 a 2.47,2.47 0 0 1 2.76,2.52 2.62,2.62 0 0 1 -2.68,2.8 h -1.77 z m 0,7.84 h 1.8 a 2.880434,2.880434 0 1 1 0.1,5.76 h -1.9 z m -3.33,8.39 h 5.72 c 3.32,0 5.82,-1.86 5.82,-5.27 a 4.25,4.25 0 0 0 -3.54,-4.49 v -0.05 a 4.19,4.19 0 0 0 3.11,-4.33 c 0,-3.17 -1.77,-4.62 -5.63,-4.62 h -5.48 z"
       id="path6"
       style="fill:#9b9fa8;fill-rule:evenodd" />
    <path
       class="cls-1"
       d="m 181.13102,81.960393 h 3.43 v -8.06 h 0.78 a 2.42,2.42 0 0 1 2.6,2 l 1.85,6.1 h 3.65 l -2.44,-7.15 c -0.59,-1.75 -1.37,-2.07 -2.06,-2.18 v -0.08 a 4.21,4.21 0 0 0 3.62,-4.41 c 0,-3.44 -2.26,-4.94 -5.58,-4.94 h -5.85 v 18.76 z m 3.43,-10.59 v -5.54 h 1.4 c 1.93,0 3.06,0.54 3.06,2.69 0,1.91 -1.24,2.85 -3.06,2.85 z"
       id="path8"
       style="fill:#9b9fa8;fill-rule:evenodd" />
    <path
       class="cls-2"
       d="m 195.27102,63.200393 v 12.06 c 0,4.91 2.84,6.83 6.38,6.83 3.54,0 6.36,-1.92 6.36,-6.83 v -12.06 h -3.44 v 12.06 c 0,3.1 -1,4.11 -2.92,4.11 -1.92,0 -2.95,-1 -2.95,-4.11 v -12.06 z"
       id="path10"
       style="fill:#9b9fa8" />
    <polygon
       class="cls-2"
       points="57.21,127.51 54.1,127.51 54.1,142.24 54.05,142.24 47.83,127.51 43.75,127.51 43.75,146.27 46.86,146.27 46.86,131.65 46.91,131.65 53.11,146.27 57.21,146.27 "
       id="polygon12"
       style="fill:#9b9fa8"
       transform="translate(167.19102,-64.309606)" />
    <path
       class="cls-1"
       d="m 230.59102,72.700393 c 0,-5 1.74,-6.82 3.91,-6.82 2.17,0 3.92,1.81 3.92,6.82 0,5.01 -1.74,6.82 -3.92,6.82 -2.18,0 -3.91,-1.81 -3.91,-6.82 z m -3.54,0 c 0,6.55 3.56,9.37 7.45,9.37 3.89,0 7.46,-2.82 7.46,-9.37 0,-6.55 -3.57,-9.38 -7.46,-9.38 -3.89,0 -7.45,2.82 -7.45,9.38 z"
       id="path14"
       style="fill:#9b9fa8;fill-rule:evenodd" />
    <polygon
       class="cls-2"
       points="93.28,146.27 97.44,146.27 90.57,136.39 96.93,127.58 92.99,127.58 87.65,135.51 87.57,135.51 87.57,127.58 84.14,127.58 84.14,146.27 87.57,146.27 87.57,137.49 87.65,137.49 "
       id="polygon16"
       style="fill:#9b9fa8"
       transform="translate(167.19102,-64.309606)" />
    <polygon
       class="cls-2"
       points="108.75,135.25 102.69,135.25 102.69,130.25 109.1,130.25 109.1,127.51 99.26,127.51 99.26,146.27 109.37,146.27 109.37,143.53 102.69,143.53 102.69,137.99 108.75,137.99 "
       id="polygon18"
       style="fill:#9b9fa8"
       transform="translate(167.19102,-64.309606)" />
    <path
       class="cls-2"
       d="m 278.35102,81.150393 a 8.76,8.76 0 0 0 4.27,0.81 c 3.57,0 6.28,-1.77 6.28,-5.47 0,-2.55 -1.05,-3.69 -3.25,-4.89 l -2,-1.09 c -1.05,-0.57 -2,-1.1 -2,-2.45 0,-1.35 0.89,-2.13 2.6,-2.13 a 9.18,9.18 0 0 1 3.52,0.78 l 0.16,-2.79 a 12.78,12.78 0 0 0 -3.92,-0.65 c -3.14,0 -5.9,1.7 -5.9,4.95 a 5.1,5.1 0 0 0 3.06,4.76 l 1.74,0.94 c 1.67,0.88 2.44,1.46 2.44,2.76 a 2.56,2.56 0 0 1 -2.84,2.63 7.9,7.9 0 0 1 -4,-1.12 l -0.19,3 z"
       id="path20"
       style="fill:#9b9fa8" />
    <path
       class="cls-2"
       d="m 290.42102,81.150393 a 8.76,8.76 0 0 0 4.27,0.81 c 3.57,0 6.27,-1.77 6.27,-5.47 0,-2.55 -1,-3.69 -3.24,-4.89 l -2,-1.09 c -1.05,-0.57 -2,-1.1 -2,-2.45 0,-1.35 0.89,-2.13 2.6,-2.13 a 9.23,9.23 0 0 1 3.52,0.78 l 0.16,-2.79 a 12.78,12.78 0 0 0 -3.92,-0.65 c -3.14,0 -5.9,1.7 -5.9,4.95 a 5.1,5.1 0 0 0 3.06,4.76 l 1.74,0.94 c 1.67,0.88 2.44,1.46 2.44,2.76 a 2.56,2.56 0 0 1 -2.84,2.63 7.9,7.9 0 0 1 -4,-1.12 l -0.19,3 z"
       id="path22"
       style="fill:#9b9fa8" />
    <polygon
       class="cls-2"
       points="135.84,146.34 145.44,146.34 145.44,143.6 139.27,143.6 139.27,127.58 135.84,127.58 "
       id="polygon24"
       style="fill:#9b9fa8"
       transform="translate(167.19102,-64.309606)" />
    <polygon
       class="cls-2"
       points="156.86,135.25 150.8,135.25 150.8,130.25 157.21,130.25 157.21,127.51 147.37,127.51 147.37,146.27 157.48,146.27 157.48,143.53 150.8,143.53 150.8,137.99 156.86,137.99 "
       id="polygon26"
       style="fill:#9b9fa8"
       transform="translate(167.19102,-64.309606)" />
    <path
       class="cls-1"
       d="m 326.46102,81.960393 h 3.43 v -8.06 h 0.78 a 2.42,2.42 0 0 1 2.6,2 l 1.85,6.1 h 3.65 l -2.44,-7.15 c -0.59,-1.75 -1.37,-2.07 -2.07,-2.18 v -0.08 a 4.21,4.21 0 0 0 3.63,-4.41 c 0,-3.44 -2.26,-4.94 -5.58,-4.94 h -5.85 v 18.76 z m 3.43,-10.59 v -5.54 h 1.38 c 1.93,0 3.05,0.54 3.05,2.69 0,1.91 -1.23,2.85 -3.05,2.85 z"
       id="path28"
       style="fill:#9b9fa8;fill-rule:evenodd" />
    <polygon
       class="cls-2"
       points="0.01,123.69 3.44,123.69 3.44,115.56 9.21,115.56 9.21,112.83 3.44,112.83 3.44,107.74 9.47,107.74 9.47,105.01 0.01,105.01 "
       id="polygon30"
       style="fill:#9b9fa8"
       transform="translate(167.19102,-64.309606)" />
    <path
       class="cls-1"
       d="m 182.40102,50.080393 c 0,-5 1.74,-6.82 3.91,-6.82 2.17,0 3.92,1.8 3.92,6.82 0,5.02 -1.74,6.82 -3.92,6.82 -2.18,0 -3.91,-1.81 -3.91,-6.82 z m -3.54,0 c 0,6.56 3.56,9.38 7.45,9.38 3.89,0 7.46,-2.82 7.46,-9.38 0,-6.56 -3.57,-9.38 -7.5,-9.38 -3.93,0 -7.45,2.82 -7.45,9.38 z"
       id="path32"
       style="fill:#9b9fa8;fill-rule:evenodd" />
    <polygon
       class="cls-2"
       points="42.43,105.01 39.32,105.01 39.32,119.68 39.26,119.68 33.04,105.01 28.96,105.01 28.96,123.69 32.07,123.69 32.07,109.13 32.13,109.13 38.32,123.69 42.43,123.69 "
       id="polygon34"
       style="fill:#9b9fa8"
       transform="translate(167.19102,-64.309606)" />
    <path
       class="cls-1"
       d="m 212.05102,59.460393 h 4.88 c 5.2,0 9,-3.07 9,-9.38 0,-6.31 -3.12,-9.38 -9,-9.38 h -4.88 z m 3.43,-16.13 h 1.15 c 3.87,0 5.61,2.64 5.61,6.75 0,4.11 -1.74,6.74 -5.61,6.74 h -1.15 z"
       id="path36"
       style="fill:#9b9fa8;fill-rule:evenodd" />
    <path
       class="cls-1"
       d="m 232.27102,52.260393 2.57,-8.72 h 0.06 l 2.36,8.72 z m 7,7.12 h 3.54 l -6,-18.68 h -3.75 l -6.28,18.68 h 3.43 l 1.35,-4.49 h 6.43 l 1.32,4.49 z"
       id="path38"
       style="fill:#9b9fa8;fill-rule:evenodd" />
    <polygon
       class="cls-2"
       points="77.27,123.73 88.75,123.73 88.75,121 81.19,121 88.64,107.85 88.64,105.01 77.49,105.01 77.49,107.75 84.65,107.75 77.27,120.73 "
       id="polygon40"
       style="fill:#9b9fa8"
       transform="translate(167.19102,-64.309606)" />
    <polygon
       class="cls-2"
       points="94.36,104.99 90.92,104.99 90.92,123.69 94.36,123.69 "
       id="polygon42"
       style="fill:#9b9fa8"
       transform="translate(167.19102,-64.309606)" />
    <path
       class="cls-1"
       d="m 267.27102,50.060393 c 0,-5 1.74,-6.81 3.91,-6.81 2.17,0 3.92,1.8 3.92,6.81 0,5.01 -1.75,6.81 -3.92,6.81 -2.17,0 -3.91,-1.8 -3.91,-6.81 z m -3.54,0 c 0,6.54 3.56,9.36 7.45,9.36 3.89,0 7.46,-2.82 7.46,-9.36 0,-6.54 -3.57,-9.36 -7.46,-9.36 -3.89,0 -7.45,2.82 -7.45,9.36 z"
       id="path44"
       style="fill:#9b9fa8;fill-rule:evenodd" />
    <polygon
       class="cls-2"
       points="127.01,105.01 123.9,105.01 123.9,119.7 123.84,119.7 117.62,105.01 113.54,105.01 113.54,123.72 116.66,123.72 116.66,109.14 116.71,109.14 122.9,123.72 127.01,123.72 "
       id="polygon46"
       style="fill:#9b9fa8"
       transform="translate(167.19102,-64.309606)" />
    <polygon
       class="cls-2"
       points="138.83,112.72 132.77,112.72 132.77,107.74 139.18,107.74 139.18,105.01 129.33,105.01 129.33,123.69 139.45,123.69 139.45,120.96 132.77,120.96 132.77,115.45 138.83,115.45 "
       id="polygon48"
       style="fill:#9b9fa8"
       transform="translate(167.19102,-64.309606)" />
  </g>
</svg>
