<?xml version="1.0" encoding="UTF-8"?>
<svg width="3600pt" height="3600pt" version="1.1" viewBox="0 0 3600 3600" xmlns="http://www.w3.org/2000/svg">
 <g fill="#0060ab">
  <path d="m324.25 2242.8v-533.12h-223.31v114.52h87.191v418.61z"/>
  <path d="m997.45 1824.2h87.156v418.61h136.15v-533.12h-223.31z"/>
  <path d="m582.16 2459.1h87.156v418.54h136.15v-533.16h-223.31z"/>
  <path d="m582.16 3079.9h87.156v418.54h136.15v-533.16h-223.31z"/>
  <path d="m997.45 2459.1h87.156v418.54h136.15v-533.16h-223.31z"/>
  <path d="m777.38 1716.8c-25.234-10.801-54-17.281-81.434-17.281-27.359 0-54.719 5.7969-80.676 15.91-80.676 32.363-120.31 100.77-120.31 186.55v148.36c0 85.066 40.355 152.79 119.59 185.9 25.922 10.871 53.281 16.559 81.395 16.559 30.277 0 60.516-6.5508 87.875-19.402 74.953-34.559 108.79-103.07 108.79-183.06v-148.36c0.003906-83.555-37.438-151.27-115.23-185.18zm-20.914 337.25c0 41.723-13.68 79.129-62.676 79.129-46.836 0-62.676-38.16-62.676-79.129v-155.63c0-40.391 15.84-79.273 62.676-79.273 48.996 0 62.676 37.441 62.676 79.273z"/>
  <path d="m3234.7 2459.1h87.23v418.54h136.15v-533.16h-223.38z"/>
  <path d="m3234.7 3079.9h87.23v418.54h136.15v-533.16h-223.38z"/>
  <path d="m3430 1716.8c-25.199-10.801-54.035-17.281-81.395-17.281s-54.758 5.7969-80.711 15.91c-80.676 32.363-120.28 100.77-120.28 186.55v148.36c0 85.066 40.355 152.79 119.59 185.9 25.922 10.871 53.242 16.559 81.395 16.559 30.238 0 60.48-6.5508 87.875-19.402 74.953-34.559 108.76-103.07 108.76-183.06v-148.36c-0.003906-83.555-37.477-151.27-115.24-185.18zm-20.914 337.25c0 41.723-13.68 79.129-62.676 79.129-46.836 0-62.605-38.16-62.605-79.129v-155.63c0-40.391 15.77-79.273 62.605-79.273 48.996 0 62.676 37.441 62.676 79.273z"/>
  <path d="m2637.4 2877.6v-533.16h-223.27v114.62h87.121v418.54z"/>
  <path d="m2829.4 2459.1h87.152v418.54h136.19v-533.16h-223.34z"/>
  <path d="m2609.4 2972.6c-25.234-10.727-54-17.242-81.395-17.242-27.434 0-54.793 5.7227-80.676 15.84-80.676 32.398-120.38 100.84-120.38 186.52v148.46c0 84.961 40.391 152.79 119.63 185.9 25.883 10.766 53.281 16.559 81.434 16.559 30.277 0 60.48-6.5508 87.805-19.512 74.953-34.559 108.79-102.96 108.79-182.95v-148.46c0.066406-83.516-37.375-151.12-115.21-185.11zm-20.914 337.18c0 41.832-13.645 79.234-62.676 79.234-46.801 0-62.605-38.16-62.605-79.234v-155.52c0-40.391 15.805-79.344 62.605-79.344 49.031 0 62.676 37.547 62.676 79.344z"/>
  <path d="m296.21 2351.7c-25.234-10.836-54.035-17.242-81.469-17.242-27.359 0-54.719 5.6875-80.605 15.805-80.711 32.398-120.35 100.84-120.35 186.66v148.36c0 84.961 40.355 152.68 119.59 185.9 25.957 10.727 53.316 16.453 81.359 16.453 30.312 0 60.551-6.4453 87.875-19.402 74.953-34.598 108.79-102.96 108.79-182.95v-148.36c0.039062-83.668-37.438-151.35-115.2-185.22zm-20.949 337.14c0 41.832-13.68 79.234-62.676 79.234-46.801 0-62.641-38.23-62.641-79.234v-155.63c0-40.285 15.84-79.129 62.641-79.129 48.996 0 62.676 37.402 62.676 79.129z"/>
  <path d="m1671 2242.8v-533.12h-223.31v114.52h87.195v418.61z"/>
  <path d="m1929 2459.1h87.191v418.54h136.12v-533.16h-223.31z"/>
  <path d="m1929 3079.9h87.191v418.54h136.12v-533.16h-223.31z"/>
  <path d="m1643 2351.7c-25.273-10.836-54.035-17.242-81.469-17.242-27.359 0-54.719 5.6875-80.641 15.805-80.711 32.398-120.31 100.84-120.31 186.66v148.36c0 84.961 40.355 152.68 119.59 185.9 25.957 10.727 53.316 16.453 81.359 16.453 30.312 0 60.551-6.4453 87.875-19.402 74.953-34.598 108.79-102.96 108.79-182.95v-148.36c0.035156-83.668-37.438-151.35-115.2-185.22zm-20.914 337.14c0 41.832-13.68 79.234-62.676 79.234-46.801 0-62.641-38.23-62.641-79.234v-155.63c0-40.285 15.84-79.129 62.641-79.129 48.996 0 62.676 37.402 62.676 79.129z"/>
  <path d="m2943 1611.3 41.004 0.035156 418.86 0.75781 15.301-15.371c103.93-108.14 168.05-254.84 168.05-416.27 0-296.46-215.75-543.38-498.31-592.38-0.61328-0.10938-1.1875-0.21484-1.8359-0.25391-49.965-281.66-296.24-496.37-591.98-496.37-278.61 0-513.43 190.51-581.44 448.09-103.18-83.09-234.11-132.98-376.52-132.98-299.48 0-548.5 220.11-593.96 507.06-94.176-61.309-206.46-97.094-326.99-97.094-331.6 0-601.41 269.82-601.41 601.38 0 65.305 10.586 128.23 29.953 187.09l0.035156 0.65234h0.21484l208.26 0.35938 725.18 1.4414 208.26 0.39453 285.19 0.61328 32.797 0.035156c10.727 0.57422 21.602 0.86328 32.473 0.86328v-0.86328l65.195 0.14453c0.50391-0.10938 1.043-0.14453 1.5859-0.21484l220 0.57422c20.125 51.59 47.375 99.504 80.207 143.1-40.824 36.758-61.344 88.777-61.344 149.9v148.36c0 85.066 40.355 152.79 119.59 185.9 25.922 10.871 53.242 16.559 81.395 16.559 30.277 0 60.551-6.5508 87.875-19.402 74.914-34.559 108.76-103.07 108.76-183.06v-75.168c28.441 7.0195 57.672 11.879 87.516 14.688v60.48c0 85.066 40.391 152.79 119.63 185.9 25.883 10.871 53.281 16.559 81.434 16.559 30.277 0 60.48-6.5508 87.805-19.402 74.953-34.559 108.79-103.07 108.79-183.06v-164.09c26.891-18.613 52.02-39.492 75.527-62.102h116.43v418.61h136.19l-0.011719-533.09h-159.88c19.477-31.105 36.578-63.828 50.184-98.387zm-1846.1-191.48-72.758-0.10938-817.96-1.6211v-0.25391c0-225.54 183.49-409.03 409-409.03 154.55 0 289.3 86.258 358.81 212.98-0.32422-0.89844-0.64844-1.8359-0.9375-2.8086 28.297 75.238 71.316 143.35 125.53 200.88l-1.6875 0.003907zm1006.3 634.25c0 41.723-13.715 79.129-62.676 79.129-46.836 0-62.676-38.16-62.676-79.129v-155.63c0-19.297 3.7422-38.125 12.672-52.668 34.414 29.809 72.18 55.801 112.71 77.258v131.04zm485.14 0c0 41.723-13.645 79.129-62.676 79.129-46.801 0-62.605-38.16-62.605-79.129v-66.887c43.414-5.7617 85.32-16.234 125.28-30.781zm-204.95-253.84c-215.46 0-392.26-167.29-407.81-378.76v-0.10938c-0.10938-0.75781-0.21484-1.4414-0.21484-2.1953l-192.74-0.39453c0.035156 0.71875 0.10938 1.5117 0.17969 2.3047l-267.88-0.61328c-215.75-11.23-387.86-194.26-387.86-412.7 0.035157-225.32 183.49-408.74 409.07-408.74 225.54 0 409 183.38 409 408.96h192.42c0-11.23-0.43359-22.355-0.97266-33.371-0.17969-3.168-0.57422-6.4062-0.75781-9.5039-0.57422-8.0273-1.1875-16.055-2.125-24.012-0.35938-2.9883-0.75781-5.8672-1.1172-8.7852-1.1172-8.7461-2.3047-17.387-3.7812-25.957-0.25391-1.5117-0.50391-2.9883-0.71875-4.4648-5.5078-29.988-13.031-59.293-22.754-87.695l-20.125-121.39c0-225.54 183.42-409.03 408.96-409.03 190.15 0 350.28 130.43 396 306.5 0.53906-0.10938 1.1523-0.17969 1.8008-0.25391 7.9219 31.57 12.168 64.727 12.168 98.82 0 31.895-3.7812 63.035-10.801 92.844 29.34-6.6602 60.047-10.367 91.512-10.367 35.891 0 70.777 4.6797 103.93 13.465 175.36 46.117 305.03 205.96 305.03 395.53 0 91.223-30.059 175.57-80.785 243.72l-522.43-0.64844c0.14453 0.39453 0.43359 0.79297 0.53906 1.1875-3.3125 44.566-13.609 84.238-30.133 123.73-61.699 147.71-207.75 251.93-377.6 251.93z"/>
 </g>
</svg>
